<svg width="62" height="62" viewBox="0 0 62 62" fill="none" xmlns="http://www.w3.org/2000/svg">
<path d="M37.2025 6.68249C37.2025 9.84298 34.6404 12.405 31.48 12.405C28.3195 12.405 25.7575 9.84298 25.7575 6.68249C25.7575 3.522 28.3195 0.959991 31.48 0.959991C34.6404 0.959991 37.2025 3.522 37.2025 6.68249ZM31.48 50.555C28.3195 50.555 25.7575 53.117 25.7575 56.2775C25.7575 59.438 28.3195 62 31.48 62C34.6404 62 37.2025 59.438 37.2025 56.2775C37.2025 53.117 34.6404 50.555 31.48 50.555ZM56.2775 25.7575C53.117 25.7575 50.555 28.3195 50.555 31.48C50.555 34.6405 53.117 37.2025 56.2775 37.2025C59.438 37.2025 62 34.6405 62 31.48C62 28.3195 59.438 25.7575 56.2775 25.7575ZM12.405 31.48C12.405 28.3195 9.84295 25.7575 6.68246 25.7575C3.52197 25.7575 0.959961 28.3195 0.959961 31.48C0.959961 34.6405 3.52197 37.2025 6.68246 37.2025C9.84295 37.2025 12.405 34.6405 12.405 31.48ZM13.9455 43.2919C10.785 43.2919 8.22301 45.854 8.22301 49.0144C8.22301 52.1749 10.785 54.7369 13.9455 54.7369C17.106 54.7369 19.668 52.1749 19.668 49.0144C19.668 45.8541 17.1059 43.2919 13.9455 43.2919ZM49.0144 43.2919C45.8539 43.2919 43.2919 45.854 43.2919 49.0144C43.2919 52.1749 45.8539 54.7369 49.0144 54.7369C52.1749 54.7369 54.7369 52.1749 54.7369 49.0144C54.7369 45.8541 52.1749 43.2919 49.0144 43.2919ZM13.9455 8.22304C10.785 8.22304 8.22301 10.785 8.22301 13.9455C8.22301 17.106 10.785 19.668 13.9455 19.668C17.106 19.668 19.668 17.106 19.668 13.9455C19.668 10.785 17.1059 8.22304 13.9455 8.22304Z" fill="#00D5E2"/>
</svg>
